# xmcd
#
# Track frame offsets: 
#        150
#        12165
#        26567
#        40525
#        53322
#        66770
#        81502
#        95700
#        109087
#        121457
#        135112
#        149372
#
# Disc length: 2162 seconds
#
# Revision: 1
# Processed by: cddbd v1.5.2PL0 Copyright (c) Steve Scherf et al.
# Submitted via: ExactAudioCopy v1.0b3
#
DISCID=9508700c
DTITLE=Big Joe Williams - Classic Delta Blues
DYEAR=1966
DGENRE=Blues
TTITLE0=Rollin' And Tumblin'
TTITLE1=Hellhound On My Trail
TTITLE2=Bird's Nest Bound
TTITLE3=Crossroads Blues
TTITLE4=Special Rider
TTITLE5=Pony Blues
TTITLE6=Pea Vine Special
TTITLE7=Walking Blues
TTITLE8=Dirt Road Blues
TTITLE9=Banty Rooster Blues
TTITLE10=Terraplane Blues
TTITLE11=Jinx Blues
EXTD=YEAR: 1964
EXTT0=
EXTT1=
EXTT2=
EXTT3=
EXTT4=
EXTT5=
EXTT6=
EXTT7=
EXTT8=
EXTT9=
EXTT10=
EXTT11=
PLAYORDER=
